<?xml version="1.0" encoding="UTF-8"?>
<svg width="64px" height="64px" viewBox="0 0 64 64" version="1.1" xmlns="http://www.w3.org/2000/svg" xmlns:xlink="http://www.w3.org/1999/xlink">
    <!-- Generator: Sketch 55 (78076) - https://sketchapp.com -->
    <title>favicon</title>
    <desc>Created with Sketch.</desc>
    <defs>
        <linearGradient x1="50%" y1="0%" x2="50%" y2="100%" id="linearGradient-1">
            <stop stop-color="#986B9D" offset="0%"></stop>
            <stop stop-color="#664C8B" offset="100%"></stop>
        </linearGradient>
    </defs>
    <g id="favicon" stroke="none" stroke-width="1" fill="none" fill-rule="evenodd">
        <path d="M47,9.75231557 L47,37 L42,32 L37,37 L37,7 L25,7 C17.8202983,7 12,12.8202983 12,20 L12,44 C12,51.1797017 17.8202983,57 25,57 L32,57 L32,7 L34,7 L34,57 L39,57 C46.1797017,57 52,51.1797017 52,44 L52,20 C52,15.8373552 50.0435392,12.1316662 47,9.75231557 Z M47.097641,7.37132944 C51.2495133,10.039075 54,14.6983322 54,20 L54,44 C54,49.3016678 51.2495133,53.960925 47.097641,56.6286706 C52.7817736,55.2392133 57,50.1122164 57,44 L57,20 C57,13.8877836 52.7817736,8.76078667 47.097641,7.37132944 Z M16.902359,56.6286706 C12.7504867,53.960925 10,49.3016678 10,44 L10,20 C10,14.6983322 12.7504867,10.039075 16.902359,7.37132944 C11.2182264,8.76078667 7,13.8877836 7,20 L7,44 C7,50.1122164 11.2182264,55.2392133 16.902359,56.6286706 Z M52.097641,7.37132944 C56.2495133,10.039075 59,14.6983322 59,20 L59,44 C59,49.3016678 56.2495133,53.960925 52.097641,56.6286706 C57.7817736,55.2392133 62,50.1122164 62,44 L62,20 C62,13.8877836 57.7817736,8.76078667 52.097641,7.37132944 Z M11.902359,56.6286706 C7.7504867,53.960925 5,49.3016678 5,44 L5,20 C5,14.6983322 7.7504867,10.039075 11.902359,7.37132944 C6.21822638,8.76078667 2,13.8877836 2,20 L2,44 C2,50.1122164 6.21822638,55.2392133 11.902359,56.6286706 Z M15,5 L49,5 C57.2842712,5 64,11.7157288 64,20 L64,44 C64,52.2842712 57.2842712,59 49,59 L15,59 C6.71572875,59 0,52.2842712 0,44 L0,20 C2.0539126e-15,11.7157288 6.71572875,5 15,5 Z" id="Combined-Shape" fill="url(#linearGradient-1)" fill-rule="nonzero"></path>
    </g>
</svg>