<svg height="160" viewBox="0 0 400 160" width="400" xmlns="http://www.w3.org/2000/svg"><g fill="none" fill-rule="nonzero"><g fill="#684688"><path d="m200.001666 0c-13.255218 0-24.000999 10.745781-24.000999 24.0009999 0 4.0521688 1.013375 7.865661 2.790782 11.2164672l-16.688695 16.6846951.014668.0120005c-1.305388 1.2827201-2.117422 3.0587941-2.117422 5.0322096 0 3.8988291 3.160132 7.0576274 7.057627 7.0576274 1.970749 0 3.748156-.8120339 5.029543-2.1174216l-.004-.0040001 16.682028-16.6806949c3.35214 1.7827409 7.172299 2.8001166 11.233802 2.8001166 13.255219 0 24.001-10.745781 24.001-24.0009998.002666-13.2538855-10.743115-24.0009999-23.998334-24.0009999zm-30.411933 59.386474c-.644027.6680278-1.536064 1.0867119-2.532106 1.0867119-1.949414 0-3.52948-1.577399-3.52948-3.528147 0-.9960415.420017-1.8854118 1.086712-2.5321054l-.017334-.0160007 16.132672-16.1326721c1.409392 1.9014126 3.089462 3.5814825 4.988208 4.9962082zm30.411933-15.3819742c-11.04446 0-20.000833-8.9590398-20.000833-20.0008332 0-11.0444601 8.956373-20.00083318 20.000833-20.00083318 11.041794 0 20.000834 8.95637308 20.000834 20.00083318 0 11.0431267-8.957707 20.0008332-20.000834 20.0008332zm0-34.0027498c.549357 0 1.000042.4480187 1.000042 1.0000417 0 .5506896-.450685 1.0000416-1.000042 1.0000416-6.628276 0-12.0005 5.3735572-12.0005 12.0004999 0 .552023-.448018 1.0000417-1.000041 1.0000417s-1.000042-.4480187-1.000042-1.0000417c0-7.7336555 6.266928-14.0005832 14.000583-14.0005832z"/><path d="m42 26v-8c0-9.94266667-8.0573333-18-18-18s-18 8.05733333-18 18v8c-3.31466667 0-6 2.6853333-6 6v6 2 4 2c0 9.9426667 8.05733333 18 18 18h12c9.9426667 0 18-8.0573333 18-18v-2-4-2-6c0-3.316-2.688-6-6-6zm-32-8c0-7.732 6.268-14 14-14s14 6.268 14 14v8h-4v-7.996c0-5.524-4.476-10-10-10s-10 4.476-10 10v7.996h-4zm22 0v.0066667 7.9933333h-16v-7.996-.004c0-4.4186667 3.5813333-8 8-8 4.4173333 0 8 3.5826667 8 8zm12 20v2 4 2c0 7.7173333-6.2826667 14-14 14h-12c-7.7173333 0-14-6.2826667-14-14v-2-4-2-6c0-1.104.896-2 2-2h4 28 4c1.1026667 0 2 .896 2 2zm-20 0c2.208 0 4 1.7906667 4 4 0 1.2173333-.656 3.536-1.332 5.364-.5466667 1.476-1.104 2.632-2.668 2.632-1.4373333 0-2.1213333-1.168-2.6666667-2.652-.6666666-1.824-1.3333333-4.1306667-1.3333333-5.344 0-2.2093333 1.792-4 4-4z"/><path d="m56 110.174879-18.5504858-7.949515 7.415093-5.2968417c-3.8636218-4.0713172-9.3098588-6.6292511-15.3646072-6.6292511-10.2693877 0-18.8261986 7.3009213-20.77926483 16.9921628l-4.94703914-2.047805c2.81421304-11.6102987 13.24999997-20.243629 25.72630397-20.243629 7.836557 0 14.8508342 3.4239389 19.7055642 8.8300944l6.7944358-4.85473zm-41.8646072 15.897813c3.8611926 4.070103 9.3098588 6.628037 15.3646072 6.628037 10.3082547 0 18.8893574-7.356793 20.7974837-17.106334l4.9421808 2.114607c-2.7984233 11.633376-13.2451416 20.290998-25.7396645 20.290998-7.836557 0-14.8532634-3.423939-19.70556421-8.830094l-6.79443579 4.85473v-21.200729l18.5504858 7.949514z"/><path d="m110.666667 136v-48h4v48h9.333333c5.154658 0 9.333333-4.178676 9.333333-9.333333v-29.3333337c0-3.1716601-1.582021-5.9738194-4-7.6604143v19.660414l-5.333333-4-5.333333 4v-21.333333h2.666666-21.333333c-5.1546577 0-9.3333333 4.1786757-9.3333333 9.3333333v29.3333337c0 5.154657 4.1786756 9.333333 9.3333333 9.333333zm23.463679-47.3361764c1.996808 2.3310843 3.202987 5.3594379 3.202987 8.6695097v29.3333337c0 3.310072-1.206179 6.338425-3.202987 8.669509 3.439696-1.375476 5.869654-4.738719 5.869654-8.669509v-29.3333337c0-3.9307901-2.429958-7.2940332-5.869654-8.6695097zm-44.2606922 46.6723524c-1.9968078-2.331084-3.2029871-5.359437-3.2029871-8.669509v-29.3333337c0-3.3100718 1.2061793-6.3384254 3.2029871-8.6695097-3.439696 1.3754765-5.8696538 4.7387196-5.8696538 8.6695097v29.3333337c0 3.93079 2.4299578 7.294033 5.8696538 8.669509zm3.4636795-51.336176h37.3333337c7.363796 0 13.333333 5.9695367 13.333333 13.3333333v29.3333337c0 7.363796-5.969537 13.333333-13.333333 13.333333h-37.3333337c-7.3637966 0-13.3333333-5.969537-13.3333333-13.333333v-29.3333337c0-7.3637966 5.9695367-13.3333333 13.3333333-13.3333333z"/><path d="m363.625 2v11.625s-31.162.086-31.916667 33.75c.46-5.0906667 4.007334-25 31.916667-25v8.7083333l20.375-14.5416666zm-35.625 6.54166667c-4.432 0-8 3.56800003-8 8.00000003v36c0 4.432 3.568 8 8 8h41.333333c4.432 0 8-3.568 8-8v-22.6666667l-4 2.6666667v20c0 2.216-1.784 4-4 4h-41.333333c-2.216 0-4-1.784-4-4v-36c0-2.216 1.784-4 4-4h16l9.333333-4.00000003z"/><path d="m272 13c.552 0 1 .448 1 1s-.450667 1-1 1c-10.654667 0-20 5.608-20 12 0 .552-.448 1-1 1s-1-.448-1-1c0-7.588 10.074667-14 22-14zm0-10c-17.673333 0-32 10.7453333-32 24 0 8.2546667 5.557333 15.532 14.016 19.852 0 .0533333-.016.0893333-.016.148 0 3.5853333-2.677333 7.4466667-3.856 9.472h.004c-.094667.22-.148.4613333-.148.716 0 1 .809333 1.812 1.812 1.812.188 0 .518667-.0493333.509333-.028 6.250667-1.024 12.138667-6.7666667 13.506667-8.4293333 1.998667.2933333 4.058667.4573333 6.172.4573333 17.670667 0 32-10.7453333 32-24s-14.328-24-32-24zm0 44c-1.834667 0-3.716-.14-5.592-.4133333-.194667-.032-.388-.0426667-.58-.0426667-1.188 0-2.325333.528-3.092 1.46-.856 1.0426667-3.292 3.368-6.169333 5.0786667.78-1.7906667 1.389333-3.796 1.432-5.864.012-.128.017333-.2586667.017333-.368 0-1.504-.841333-2.8786667-2.18-3.5613334-7.412-3.7853333-11.836-9.8746666-11.836-16.2893333 0-11.028 12.56-20 28-20 15.436 0 28 8.972 28 20s-12.561333 20-28 20z"/><path d="m192 80c-17.673333 0-32 14.3266667-32 32 0 17.673333 14.326667 32 32 32s32-14.326667 32-32c0-17.6733333-14.326667-32-32-32zm0 4c15.463973 0 28 12.536024 28 28 0 12.684311-8.43372 23.391332-20 26.833333v-1.166666-2.291667-2.5c0-2.521333-.895667-4.395333-2.625-5.583333 1.084-.104 2.094667-.23 3-.416667s1.864333-.438333 2.875-.791667c1.010667-.353333 1.905667-.802333 2.708333-1.291666.802667-.489334 1.594667-1.135334 2.333334-1.916667.738666-.781333 1.333333-1.635667 1.833333-2.625s.916333-2.198 1.208333-3.583333c.292-1.385334.416667-2.916667.416667-4.583334 0-3.229333-1.021-5.978-3.125-8.25.958667-2.5.833333-5.229333-.333333-8.1666663l-.791667-.0833334c-.541333-.0626666-1.511333.187-2.916667.7083334-1.405333.5213333-2.957666 1.3536666-4.708333 2.5416666-2.478667-.688-5.083333-1-7.75-1-2.688 0-5.229333.3133334-7.666667 1-1.104-.7506666-2.135666-1.3426666-3.125-1.8333333-.989333-.4893333-1.781666-.8226667-2.375-1-.593333-.1773333-1.156-.292-1.666666-.3333333-.510667-.0413334-.854667-.063-1-.0416667-.145334.0213333-.230334.062-.291667.0833333-1.166667 2.9586667-1.292 5.6463337-.333333 8.1249997-2.104 2.270667-3.166667 5.020667-3.166667 8.25 0 1.666667.166333 3.198.458333 4.583334.292 1.385333.666667 2.594 1.166667 3.583333s1.135 1.843667 1.875 2.625 1.532 1.426 2.333333 1.916667c.801334.490666 1.697667.938333 2.708334 1.291666 1.010666.353334 1.636333.605 2.541666.791667.905334.186667 1.917334.354333 3 .458333-1.708 1.166667-2.583333 3.000334-2.583333 5.541667v2.25 2.625 1.083333c-11.566267-3.442001-20-14.149022-20-26.833333 0-15.463976 12.53604-28 28-28z"/><path d="m100 0c-.9950533 0-1.9247733.35080401-2.6666667.95833333-.7418933.60752932-1.3333333 1.5427813-1.3333333 2.66666667v1.70833333h-1.3333333v1.33333334h-7.3333334c-.0693333-.00361334-.1389466-.00361334-.2083333 0-.9758933.1022864-1.79692 1.01877413-1.7916667 2v.66666666h-2c-1.0471733.00010467-1.9998933.95283107-2 1.99999997v.7916667c-.7703466.2724076-1.3289333 1.0579169-1.3333333 1.875v4c.0001067 1.0471693.9528267 1.9998947 2 2h3.3333333v33.3333333l-1.6666666 1.5833334c-.6097867.3520693-1.0062667 1.0459053-1 1.75v4c.0001066 1.0471693.9528266 1.9998946 2 2h10.5416666 9.4583337.208333 10.458333c1.047174-.0001054 1.999894-.9528307 2-2v-4c.006667-.7040947-.390213-1.3979307-1-1.75l-1.666666-1.5833334v-33.3333333h3.333333c1.047173-.0001053 1.999893-.9528307 2-2v-4c-.004-.8170831-.562987-1.6025924-1.333333-1.875v-.7916667c-.000107-1.0471689-.952827-1.9998953-2-1.99999997h-2v-.66666666c-.000107-1.04716894-.952827-1.99989534-2-2h-7.333334v-1.33333334h-1.333333v-1.70833333c0-1.12388537-.59144-2.05913731-1.333333-2.66666667-.741894-.60752936-1.671614-.95833333-2.666667-.95833333zm0 2.66666667c.274467 0 .684267.15057293.958333.375.274067.22442706.375.43769613.375.58333333v1.70833333h-2.6666663v-1.70833333c0-.1456372.1009333-.3589064.375-.58333333.2740666-.22442694.6838666-.375.9583333-.375zm-12 8.00000003h24v1.3333333h2.666667c-.0704.9827864.153186 1.6843969 1.333333 1.4166667v3.9166666h-5.333333-21.3333337-5.3333333v-3.7916666c1.09188.0646118 1.25424-.7060276 1.3333333-1.5416667h2.6666667zm1.3333333 9.3333333h21.3333337v36l2.666666 1.8333333v.8333334h-26.6666663v-.8333334l2.6666666-1.8333333zm2.6666667 2.6666667v5.3333333h2.6666667v-5.3333333zm4 0v5.3333333h2.6666667v-5.3333333zm5.333333 0v5.3333333h2.666667v-5.3333333zm4 0v5.3333333h2.666667v-5.3333333zm-13.333333 6.6666666v5.3333334h2.6666667v-5.3333334zm4 0v5.3333334h2.6666667v-5.3333334zm5.333333 0v5.3333334h2.666667v-5.3333334zm4 0v5.3333334h2.666667v-5.3333334zm-2.166666 11.5c-1.013987 0-1.833334.819348-1.833334 1.8333334 0 1.0139853.819347 1.8333333 1.833334 1.8333333 1.013986 0 1.833333-.819348 1.833333-1.8333333 0-1.0139854-.819347-1.8333334-1.833333-1.8333334z"/><path d="m247.471598 80-4 35.791667 3.958333.416666 3.583333-32.208333h40.916667l3.583333 32.208333 3.958334-.416666-4-35.791667zm8 8v4h32v-4zm0 8v4h32v-4zm0 8v4h32v-4zm0 8v4h32v-4zm-14 8c-1.1 0-1.723.872667-1.375 1.916667l6.75 20.166666c.348 1.044 1.525 1.916667 2.625 1.916667h44c1.1 0 2.277-.872667 2.625-1.916667l6.75-20.166666c.349333-1.044-.275-1.916667-1.375-1.916667zm22 4h16v4h-16z"/></g><path d="m384 92.1508074c-2.355559 1.0437664-4.883041 1.7516369-7.538627 2.0676635 2.711534-1.6237412 4.787145-4.1992225 5.770886-7.2586785-2.543482 1.5036887-5.351016 2.5955598-8.342498 3.1874562-2.395507-2.5555074-5.802885-4.1472486-9.582238-4.1472486-7.250626 0-13.129537 5.8789116-13.129537 13.1255639 0 1.0277661.115974 2.0315851.339974 2.9914821-10.909926-.547975-20.584086-5.7749637-27.058868-13.717565-1.131819 1.9356895-1.775689 4.1911703-1.775689 6.5988082 0 4.555197 2.319586 8.5744458 5.838964 10.9259268-2.151638-.071948-4.175275-.663845-5.946886-1.647689v.163974c0 6.358807 4.527171 11.665797 10.530004 12.873642-1.099818.295948-2.259559.459922-3.459352.459922-.847792 0-1.667662-.083974-2.471533-.243974 1.671637 5.219041 6.518808 9.014289 12.261772 9.118341-4.491197 3.519379-10.154161 5.61099-16.304968 5.61099-1.059767 0-2.103638-.064-3.131404-.179974 5.810938 3.731352 12.709668 5.906938 20.124268 5.906938 24.151464 0 37.353055-20.004321 37.353055-37.353055l-.044027-1.6996628c2.579456-1.8397939 4.810989-4.1513271 6.566704-6.7828608z" fill="#fff"/></g></svg>