<?xml version="1.0" encoding="UTF-8"?>
<svg width="90px" height="98px" viewBox="0 0 90 98" version="1.1" xmlns="http://www.w3.org/2000/svg" xmlns:xlink="http://www.w3.org/1999/xlink">
    <!-- Generator: Sketch 55 (78076) - https://sketchapp.com -->
    <title>logo</title>
    <desc>Created with Sketch.</desc>
    <defs>
        <linearGradient x1="50%" y1="0%" x2="50%" y2="100%" id="linearGradient-1">
            <stop stop-color="#986B9D" offset="0%"></stop>
            <stop stop-color="#664C8B" offset="100%"></stop>
        </linearGradient>
    </defs>
    <g id="logo" stroke="none" stroke-width="1" fill="none" fill-rule="evenodd">
        <path d="M63,5.34786368 L63,43 L58,38 L53,43 L53,5 L30,5 C22.8202983,5 17,10.8202983 17,18 L17,58 C17,65.1797017 22.8202983,71 30,71 L45,71 L45,5 L47,5 L47,71 L60,71 C67.1797017,71 73,65.1797017 73,58 L73,18 C73,11.8528367 68.7334,6.70219128 63,5.34786368 Z M67.6693542,5.10618565 C72.0593056,7.72299627 75,12.5180801 75,18 L75,58 C75,63.4819199 72.0593056,68.2770037 67.6693542,70.8938143 C74.060623,70.0745197 79,64.6140865 79,58 L79,18 C79,11.3859135 74.060623,5.92548026 67.6693542,5.10618565 Z M22.3306458,70.8938143 C17.9406944,68.2770037 15,63.4819199 15,58 L15,18 C15,12.5180801 17.9406944,7.72299627 22.3306458,5.10618565 C15.939377,5.92548026 11,11.3859135 11,18 L11,58 C11,64.6140865 15.939377,70.0745197 22.3306458,70.8938143 Z M73.6693542,5.10618565 C78.0593056,7.72299627 81,12.5180801 81,18 L81,58 C81,63.4819199 78.0593056,68.2770037 73.6693542,70.8938143 C80.060623,70.0745197 85,64.6140865 85,58 L85,18 C85,11.3859135 80.060623,5.92548026 73.6693542,5.10618565 Z M16.3306458,70.8938143 C11.9406944,68.2770037 9,63.4819199 9,58 L9,18 C9,12.5180801 11.9406944,7.72299627 16.3306458,5.10618565 C9.93937703,5.92548026 5,11.3859135 5,18 L5,58 C5,64.6140865 9.93937703,70.0745197 16.3306458,70.8938143 Z M18,3 L72,3 C80.2842712,3 87,9.71572875 87,18 L87,58 C87,66.2842712 80.2842712,73 72,73 L18,73 C9.71572875,73 3,66.2842712 3,58 L3,18 C3,9.71572875 9.71572875,3 18,3 Z" id="Combined-Shape" fill="url(#linearGradient-1)" fill-rule="nonzero"></path>
        <path d="M24.22,95.092 C24.0293324,95.092 23.7616684,95.0736668 23.417,95.037 C23.0723316,95.0003332 22.7680013,94.9306672 22.504,94.828 L22.856,92.65 C23.1786683,92.7526672 23.5673311,92.804 24.022,92.804 C24.6380031,92.804 25.0706654,92.6243351 25.32,92.265 C25.5693346,91.9056649 25.694,91.3666703 25.694,90.648 L25.694,82.642 L28.356,82.285 L28.356,90.692 C28.356,92.1880075 28.0003369,93.2953297 27.289,94.014 C26.5776631,94.7326703 25.5546733,95.092 24.22,95.092 Z M41.4,84.892 C41.1799989,84.8186663 40.8756686,84.7416671 40.487,84.661 C40.0983314,84.5803329 39.6473359,84.54 39.134,84.54 C38.8406652,84.54 38.5290017,84.569333 38.199,84.628 C37.8689984,84.686667 37.6380007,84.7379998 37.506,84.782 L37.506,94 L34.844,94 L34.844,83.044 C35.3573359,82.8533324 35.9989962,82.6736675 36.769,82.505 C37.5390039,82.3363325 38.3933286,82.252 39.332,82.252 C39.5080009,82.252 39.7133322,82.2629999 39.948,82.285 C40.1826678,82.3070001 40.4173322,82.3363332 40.652,82.373 C40.8866678,82.4096669 41.1139989,82.4536664 41.334,82.505 C41.5540011,82.5563336 41.7299993,82.6039998 41.862,82.648 L41.4,84.892 Z M46.81,82.868 C47.3233359,82.7213326 47.9906626,82.5820007 48.812,82.45 C49.6333374,82.3179993 50.5426617,82.252 51.54,82.252 C52.4786714,82.252 53.2633302,82.3803321 53.894,82.637 C54.5246698,82.893668 55.0269981,83.2529977 55.401,83.715 C55.7750019,84.1770023 56.0389992,84.7343301 56.193,85.387 C56.3470008,86.0396699 56.424,86.7546628 56.424,87.532 L56.424,94 L53.762,94 L53.762,87.95 C53.762,87.3339969 53.7216671,86.8096688 53.641,86.377 C53.5603329,85.9443312 53.4283342,85.5923347 53.245,85.321 C53.0616658,85.0496653 52.8123349,84.8516673 52.497,84.727 C52.1816651,84.6023327 51.7966689,84.54 51.342,84.54 C51.004665,84.54 50.6526685,84.5619998 50.286,84.606 C49.9193315,84.6500002 49.6480009,84.6866665 49.472,84.716 L49.472,94 L46.81,94 L46.81,82.868 Z M66.784,94.22 C65.991996,94.2053333 65.3356693,94.1173341 64.815,93.956 C64.2943307,93.7946659 63.8800015,93.5636682 63.572,93.263 C63.2639985,92.9623318 63.0476673,92.5883356 62.923,92.141 C62.7983327,91.6936644 62.736,91.1840029 62.736,90.612 L62.736,82.692 L65.398,82.252 L65.398,90.106 C65.398,90.4286683 65.4236664,90.6999989 65.475,90.92 C65.5263336,91.1400011 65.6179993,91.3269992 65.75,91.481 C65.8820007,91.6350008 66.0616655,91.7523329 66.289,91.833 C66.5163345,91.9136671 66.8059982,91.9759998 67.158,92.02 L66.784,94.22 Z" id="jrnl" fill="#674C8B" fill-rule="nonzero"></path>
    </g>
</svg>