<svg width="400" height="160" viewBox="0 0 400 160" fill="none" xmlns="http://www.w3.org/2000/svg">
<g id="sprites">
<path id="path10" fill-rule="evenodd" clip-rule="evenodd" d="M176.001 24.001C176.001 10.7458 186.746 0 200.002 0C213.257 0 224.003 10.7471 224 24.001C224 37.2562 213.254 48.002 199.999 48.002C195.938 48.002 192.117 46.9846 188.765 45.2019L172.083 61.8826L172.087 61.8866C170.806 63.192 169.028 64.004 167.058 64.004C163.16 64.004 160 60.8452 160 56.9464C160 54.973 160.812 53.1969 162.117 51.9142L162.103 51.9022L178.791 35.2175C177.014 31.8667 176.001 28.0532 176.001 24.001ZM167.058 60.4732C168.054 60.4732 168.946 60.0545 169.59 59.3865L185.718 43.2605C183.82 41.8457 182.14 40.1657 180.73 38.2643L164.598 54.3969L164.615 54.4129C163.948 55.0596 163.528 55.949 163.528 56.945C163.528 58.8958 165.108 60.4732 167.058 60.4732ZM200.002 44.0045C188.957 44.0045 180.001 35.0455 180.001 24.0037C180.001 12.9592 188.957 4.00283 200.002 4.00283C211.043 4.00283 220.003 12.9592 220.003 24.0037C220.003 35.0468 211.045 44.0045 200.002 44.0045ZM201.002 11.0018C201.002 10.4498 200.551 10.0017 200.002 10.0017C192.268 10.0017 186.001 16.2687 186.001 24.0023C186.001 24.5544 186.449 25.0024 187.001 25.0024C187.553 25.0024 188.001 24.5544 188.001 24.0023C188.001 17.3754 193.373 12.0018 200.002 12.0018C200.551 12.0018 201.002 11.5525 201.002 11.0018Z" fill="#684688"/>
<path id="path12" fill-rule="evenodd" clip-rule="evenodd" d="M42 26V18C42 8.05733 33.9427 0 24 0C14.0573 0 6 8.05733 6 18V26C2.68533 26 0 28.6853 0 32V38V40V44V46C0 55.9427 8.05733 64 18 64H30C39.9427 64 48 55.9427 48 46V44V40V38V32C48 28.684 45.312 26 42 26ZM10 18C10 10.268 16.268 4 24 4C31.732 4 38 10.268 38 18V26H34V18.004C34 12.48 29.524 8.004 24 8.004C18.476 8.004 14 12.48 14 18.004V26H10V18ZM32 18.0067V18C32 13.5827 28.4173 10 24 10C19.5813 10 16 13.5813 16 18V18.004V26H32V18.0067ZM44 38V40V44V46C44 53.7173 37.7173 60 30 60H18C10.2827 60 4 53.7173 4 46V44V40V38V32C4 30.896 4.896 30 6 30H10H38H42C43.1027 30 44 30.896 44 32V38ZM28 42C28 39.7907 26.208 38 24 38C21.792 38 20 39.7907 20 42C20 43.2133 20.6667 45.52 21.3333 47.344C21.8787 48.828 22.5627 49.996 24 49.996C25.564 49.996 26.1213 48.84 26.668 47.364C27.344 45.536 28 43.2173 28 42Z" fill="#684688"/>
<path id="path6" fill-rule="evenodd" clip-rule="evenodd" d="M37.4495 102.225L56 110.175V88.9754L49.2056 93.8301C44.3508 88.4239 37.3366 85 29.5 85C17.0237 85 6.58791 93.6333 3.7737 105.244L8.72074 107.291C10.6738 97.6002 19.2306 90.2993 29.5 90.2993C35.5547 90.2993 41.001 92.8572 44.8646 96.9285L37.4495 102.225ZM29.5 132.701C23.4453 132.701 17.9966 130.143 14.1354 126.073L21.5505 120.773L3 112.824V134.025L9.79444 129.17C14.6467 134.576 21.6634 138 29.5 138C41.9945 138 52.4412 129.342 55.2397 117.709L50.2975 115.594C48.3894 125.344 39.8083 132.701 29.5 132.701Z" fill="#684688"/>
<path id="Combined Shape" fill-rule="evenodd" clip-rule="evenodd" d="M124 84H130.667C138.03 84 144 89.9695 144 97.3333V126.667C144 134.03 138.03 140 130.667 140H124H100H93.3333C85.9695 140 80 134.03 80 126.667V97.3333C80 89.9695 85.9695 84 93.3333 84H100H124ZM110.667 88H100C94.8453 88 90.6667 92.1787 90.6667 97.3333V126.667C90.6667 131.821 94.8453 136 100 136H110.667V88ZM114.667 88V136H124C129.155 136 133.333 131.821 133.333 126.667V97.3333C133.333 94.1617 131.751 91.3595 129.333 89.6729V109.333L124 105.333L118.667 109.333V88H114.667ZM134.13 135.336C136.127 133.005 137.333 129.977 137.333 126.667V97.3333C137.333 94.0233 136.127 90.9949 134.13 88.6638C137.57 90.0393 140 93.4025 140 97.3333V126.667C140 130.597 137.57 133.961 134.13 135.336ZM89.8697 135.336C87.8729 133.005 86.6667 129.977 86.6667 126.667V97.3333C86.6667 94.0233 87.8728 90.9949 89.8697 88.6638C86.43 90.0393 84 93.4025 84 97.3333V126.667C84 130.597 86.43 133.961 89.8697 135.336Z" fill="#684688"/>
<path id="path8" fill-rule="evenodd" clip-rule="evenodd" d="M363.625 13.625V2L384 16.5417L363.625 31.0833V22.375C335.716 22.375 332.168 42.2843 331.708 47.375C332.463 13.711 363.625 13.625 363.625 13.625ZM320 16.5417C320 12.1097 323.568 8.54167 328 8.54167H353.333L344 12.5417H328C325.784 12.5417 324 14.3257 324 16.5417V52.5417C324 54.7577 325.784 56.5417 328 56.5417H369.333C371.549 56.5417 373.333 54.7577 373.333 52.5417V32.5417L377.333 29.875V52.5417C377.333 56.9737 373.765 60.5417 369.333 60.5417H328C323.568 60.5417 320 56.9737 320 52.5417V16.5417Z" fill="#684688"/>
<path id="path16" fill-rule="evenodd" clip-rule="evenodd" d="M272 3C254.327 3 240 13.7453 240 27C240 35.2547 245.557 42.532 254.016 46.852C254.016 46.878 254.012 46.8999 254.008 46.9224C254.004 46.9459 254 46.97 254 47C254 50.1096 251.986 53.4268 250.683 55.5737L250.683 55.5739C250.483 55.9023 250.3 56.2033 250.144 56.472H250.148C250.053 56.692 250 56.9333 250 57.188C250 58.188 250.809 59 251.812 59C251.902 59 252.025 58.9887 252.127 58.9792C252.239 58.9689 252.326 58.9609 252.321 58.972C258.572 57.948 264.46 52.2053 265.828 50.5427C267.827 50.836 269.887 51 272 51C289.671 51 304 40.2547 304 27C304 13.7453 289.672 3 272 3ZM272 13C272.552 13 273 13.448 273 14C273 14.552 272.549 15 272 15C261.345 15 252 20.608 252 27C252 27.552 251.552 28 251 28C250.448 28 250 27.552 250 27C250 19.412 260.075 13 272 13ZM266.408 46.5867C268.284 46.86 270.165 47 272 47C287.439 47 300 38.028 300 27C300 15.972 287.436 7 272 7C256.56 7 244 15.972 244 27C244 33.4147 248.424 39.504 255.836 43.2893C257.175 43.972 258.016 45.3467 258.016 46.8507C258.016 46.96 258.011 47.0907 257.999 47.2187C257.956 49.2867 257.347 51.292 256.567 53.0827C259.444 51.372 261.88 49.0467 262.736 48.004C263.503 47.072 264.64 46.544 265.828 46.544C266.02 46.544 266.213 46.5547 266.408 46.5867Z" fill="#684688"/>
<path id="path22" fill-rule="evenodd" clip-rule="evenodd" d="M160 112C160 94.3267 174.327 80 192 80C209.673 80 224 94.3267 224 112C224 129.673 209.673 144 192 144C174.327 144 160 129.673 160 112ZM220 112C220 96.536 207.464 84 192 84C176.536 84 164 96.536 164 112C164 124.684 172.434 135.391 184 138.833V137.75V135.125V132.875C184 130.334 184.875 128.5 186.583 127.333C185.501 127.229 184.489 127.062 183.583 126.875C182.838 126.721 182.282 126.524 181.545 126.261C181.387 126.205 181.22 126.146 181.042 126.083C180.031 125.73 179.135 125.282 178.333 124.792C177.532 124.301 176.74 123.656 176 122.875C175.26 122.094 174.625 121.239 174.125 120.25C173.625 119.261 173.25 118.052 172.958 116.667C172.666 115.281 172.5 113.75 172.5 112.083C172.5 108.854 173.563 106.104 175.667 103.833C174.708 101.355 174.833 98.667 176 95.7083C176.012 95.7042 176.025 95.6992 176.039 95.6938C176.097 95.6718 176.175 95.6422 176.292 95.625C176.437 95.6037 176.781 95.6253 177.292 95.6667C177.802 95.708 178.365 95.8227 178.958 96C179.552 96.1773 180.344 96.5107 181.333 97C182.323 97.4907 183.354 98.0827 184.458 98.8333C186.896 98.1467 189.437 97.8333 192.125 97.8333C194.792 97.8333 197.396 98.1453 199.875 98.8333C201.626 97.6453 203.178 96.813 204.583 96.2917C205.989 95.7703 206.959 95.5207 207.5 95.5833L208.292 95.6667C209.458 98.604 209.584 101.333 208.625 103.833C210.729 106.105 211.75 108.854 211.75 112.083C211.75 113.75 211.625 115.281 211.333 116.667C211.041 118.052 210.625 119.261 210.125 120.25C209.625 121.239 209.03 122.094 208.292 122.875C207.553 123.656 206.761 124.302 205.958 124.792C205.156 125.281 204.261 125.73 203.25 126.083C202.239 126.437 201.28 126.688 200.375 126.875C199.47 127.062 198.459 127.188 197.375 127.292C199.104 128.48 200 130.354 200 132.875V135.375V137.667V138.833C211.566 135.391 220 124.684 220 112Z" fill="#684688"/>
<path id="path3858" fill-rule="evenodd" clip-rule="evenodd" d="M100 0C99.0049 0 98.0752 0.350804 97.3333 0.958333C96.5914 1.56586 96 2.50111 96 3.625V5.33333H94.6667V6.66667H87.3333C87.264 6.66305 87.1944 6.66305 87.125 6.66667C86.1491 6.76895 85.3281 7.68544 85.3333 8.66667V9.33333H83.3333C82.2862 9.33344 81.3334 10.2862 81.3333 11.3333V12.125C80.563 12.3974 80.0044 13.1829 80 14V18C80.0001 19.0472 80.9528 19.9999 82 20H85.3333V53.3333L83.6667 54.9167C83.0569 55.2687 82.6604 55.9626 82.6667 56.6667V60.6667C82.6668 61.7138 83.6195 62.6666 84.6667 62.6667H95.2083H104.667H104.875H115.333C116.381 62.6666 117.333 61.7138 117.333 60.6667V56.6667C117.34 55.9626 116.943 55.2687 116.333 54.9167L114.667 53.3333V20H118C119.047 19.9999 120 19.0472 120 18V14C119.996 13.1829 119.437 12.3974 118.667 12.125V11.3333C118.667 10.2862 117.714 9.33344 116.667 9.33333H114.667V8.66667C114.667 7.6195 113.714 6.66677 112.667 6.66667H105.333V5.33333H104V3.625C104 2.50111 103.409 1.56586 102.667 0.958333C101.925 0.350804 100.995 0 100 0ZM100 2.66667C100.274 2.66667 100.684 2.81724 100.958 3.04167C101.232 3.26609 101.333 3.47936 101.333 3.625V5.33333H98.6667V3.625C98.6667 3.47936 98.7676 3.26609 99.0417 3.04167C99.3157 2.81724 99.7255 2.66667 100 2.66667ZM112 12V10.6667H88V12H85.3333C85.2542 12.8356 85.0919 13.6063 84 13.5417V17.3333H89.3333H110.667H116V13.4167C114.82 13.6844 114.596 12.9828 114.667 12H112ZM110.667 20V56L113.333 57.8333V58.6667H86.6667V57.8333L89.3333 56V20H110.667ZM92 28V22.6667H94.6667V28H92ZM96 22.6667V28H98.6667V22.6667H96ZM101.333 28V22.6667H104V28H101.333ZM105.333 22.6667V28H108V22.6667H105.333ZM92 34.6667V29.3333H94.6667V34.6667H92ZM96 29.3333V34.6667H98.6667V29.3333H96ZM101.333 34.6667V29.3333H104V34.6667H101.333ZM105.333 29.3333V34.6667H108V29.3333H105.333ZM101.333 42.6667C101.333 41.6527 102.153 40.8333 103.167 40.8333C104.181 40.8333 105 41.6527 105 42.6667C105 43.6806 104.181 44.5 103.167 44.5C102.153 44.5 101.333 43.6806 101.333 42.6667Z" fill="#684688"/>
<path id="path20" fill-rule="evenodd" clip-rule="evenodd" d="M247.472 80L243.472 115.792L247.43 116.208L251.013 84H291.93L295.513 116.208L299.472 115.792L295.472 80H247.472ZM255.472 88V92H287.472V88H255.472ZM255.472 100V96H287.472V100H255.472ZM255.472 104V108H287.472V104H255.472ZM255.472 116V112H287.472V116H255.472ZM241.472 120C240.372 120 239.749 120.873 240.097 121.917L246.847 142.083C247.195 143.127 248.372 144 249.472 144H293.472C294.572 144 295.749 143.127 296.097 142.083L302.847 121.917C303.196 120.873 302.572 120 301.472 120H241.472ZM279.472 124H263.472V128H279.472V124Z" fill="#684688"/>
<path id="Vector" d="M370.378 82H380.145L358.811 107.042L384 141H364.209L348.787 120.416L331.052 141H321.285L344.161 114.253L320 82H340.305L354.313 100.88L370.378 82ZM366.908 134.969H372.305L337.349 87.6378H331.438L366.908 134.969Z" fill="white"/>
</g>
</svg>
