<?xml version="1.0" encoding="UTF-8"?>
<svg width="84px" height="70px" viewBox="0 0 84 70" version="1.1" xmlns="http://www.w3.org/2000/svg" xmlns:xlink="http://www.w3.org/1999/xlink">
    <!-- Generator: Sketch 55 (78076) - https://sketchapp.com -->
    <title>logo_white</title>
    <desc>Created with Sketch.</desc>
    <g id="logo_white" stroke="none" stroke-width="1" fill="none" fill-rule="evenodd">
        <path d="M60,2.34786368 L60,40 L55,35 L50,40 L50,2 L27,2 C19.8202983,2 14,7.82029825 14,15 L14,55 C14,62.1797017 19.8202983,68 27,68 L42,68 L42,2 L44,2 L44,68 L57,68 C64.1797017,68 70,62.1797017 70,55 L70,15 C70,8.85283673 65.7334,3.70219128 60,2.34786368 Z M64.6693542,2.10618565 C69.0593056,4.72299627 72,9.51808015 72,15 L72,55 C72,60.4819199 69.0593056,65.2770037 64.6693542,67.8938143 C71.060623,67.0745197 76,61.6140865 76,55 L76,15 C76,8.38591347 71.060623,2.92548026 64.6693542,2.10618565 Z M19.3306458,67.8938143 C14.9406944,65.2770037 12,60.4819199 12,55 L12,15 C12,9.51808015 14.9406944,4.72299627 19.3306458,2.10618565 C12.939377,2.92548026 8,8.38591347 8,15 L8,55 C8,61.6140865 12.939377,67.0745197 19.3306458,67.8938143 Z M70.6693542,2.10618565 C75.0593056,4.72299627 78,9.51808015 78,15 L78,55 C78,60.4819199 75.0593056,65.2770037 70.6693542,67.8938143 C77.060623,67.0745197 82,61.6140865 82,55 L82,15 C82,8.38591347 77.060623,2.92548026 70.6693542,2.10618565 Z M13.3306458,67.8938143 C8.94069436,65.2770037 6,60.4819199 6,55 L6,15 C6,9.51808015 8.94069436,4.72299627 13.3306458,2.10618565 C6.93937703,2.92548026 2,8.38591347 2,15 L2,55 C2,61.6140865 6.93937703,67.0745197 13.3306458,67.8938143 Z M15,0 L69,0 C77.2842712,-1.33226763e-15 84,6.71572875 84,15 L84,55 C84,63.2842712 77.2842712,70 69,70 L15,70 C6.71572875,70 2.66453526e-15,63.2842712 0,55 L0,15 C-8.8817842e-16,6.71572875 6.71572875,1.33226763e-15 15,0 Z" id="Combined-Shape" fill="#FFFFFF" fill-rule="nonzero"></path>
    </g>
</svg>